<?xml version="1.0" standalone="no"?>
<!DOCTYPE svg PUBLIC "-//W3C//DTD SVG 20010904//EN"
 "http://www.w3.org/TR/2001/REC-SVG-20010904/DTD/svg10.dtd">
<svg version="1.0" xmlns="http://www.w3.org/2000/svg"
 width="75.000000pt" height="54.000000pt" viewBox="0 0 75.000000 54.000000"
 preserveAspectRatio="xMidYMid meet">

<g transform="translate(0.000000,54.000000) scale(0.100000,-0.100000)"
fill="#000000" stroke="none">
<path d="M410 499 c-14 -25 -1 -43 51 -70 49 -25 75 -24 123 4 52 30 66 52 44
73 -23 23 -65 10 -86 -26 -18 -32 -32 -39 -32 -17 0 21 -44 57 -68 57 -12 0
-26 -9 -32 -21z m195 -28 c-6 -5 -21 -12 -35 -16 l-25 -7 24 26 c17 18 28 23
35 16 6 -6 6 -13 1 -19z m-130 -1 c20 -23 17 -24 -19 -10 -14 5 -26 14 -26 20
0 17 26 11 45 -10z"/>
<path d="M295 378 c-17 -52 -17 -53 91 -56 98 -3 102 -2 108 20 12 47 11 48
-94 48 -72 0 -102 -4 -105 -12z"/>
<path d="M574 383 c-46 -3 -52 -7 -56 -28 -3 -14 -3 -27 0 -30 3 -3 45 -5 94
-5 91 0 93 1 100 45 3 17 -3 20 -42 21 -25 0 -68 -1 -96 -3z"/>
<path d="M275 298 c-7 -24 -45 -227 -45 -243 0 -13 15 -15 107 -13 l107 3 22
128 c11 70 18 129 16 132 -3 3 -50 5 -104 5 -70 0 -100 -4 -103 -12z"/>
<path d="M505 298 c-2 -7 -12 -66 -23 -131 -14 -89 -16 -120 -7 -123 6 -3 49
-4 95 -2 l83 3 23 115 c33 165 40 150 -71 150 -68 0 -97 -4 -100 -12z"/>
<path d="M66 271 c-9 -14 20 -21 89 -21 67 0 95 6 95 21 0 12 -177 12 -184 0z"/>
<path d="M65 220 c-4 -6 25 -10 79 -10 51 0 86 4 86 10 0 13 -157 13 -165 0z"/>
<path d="M0 170 c0 -6 42 -10 105 -10 63 0 105 4 105 10 0 6 -42 10 -105 10
-63 0 -105 -4 -105 -10z"/>
<path d="M110 120 c0 -5 18 -10 40 -10 22 0 40 5 40 10 0 6 -18 10 -40 10 -22
0 -40 -4 -40 -10z"/>
</g>
</svg>
